<svg aria-hidden="true" style="position: absolute; width: 0; height: 0; overflow: hidden;" version="1.1" xmlns="http://www.w3.org/2000/svg" xmlns:xlink="http://www.w3.org/1999/xlink">
<defs>
<symbol id="icon-home" viewBox="0 0 32 32">
    <path fill="#000" style="fill: var(--color1, #000)" d="M28 26h-24v1.333c0 0.737 0.597 1.333 1.333 1.333h21.333c0.737 0 1.333-0.597 1.333-1.333v-1.333z"></path>
    <path fill="#000" style="fill: var(--color1, #000)" d="M28 26h-24v-12.667l12-11.333 12 11.333v12.667z"></path>
    <path fill="#de490d" style="fill: var(--color2, #de490d)" d="M8.667 16.667h6.667c0.368 0 0.667 0.299 0.667 0.667v11.333h-8v-11.333c0-0.368 0.299-0.667 0.667-0.667z"></path>
    <path fill="#000" style="fill: var(--color1, #000)" opacity="0.05" d="M16 2.667c-0.316 0-0.632 0.112-0.884 0.335l-3.573 3.207-7.543 7.124v3.593l12-10.641 12 10.641v-3.593l-7.543-7.124-3.573-3.207c-0.252-0.223-0.568-0.335-0.884-0.335z"></path>
    <path fill="#000" style="fill: var(--color1, #000)" opacity="0.07" d="M16 2c-0.316 0-0.632 0.111-0.884 0.333l-3.573 3.189-7.543 7.083v3.573l12-10.581 12 10.581v-3.573l-7.543-7.083-3.573-3.189c-0.252-0.222-0.568-0.333-0.884-0.333z"></path>
    <path fill="#000" style="fill: var(--color1, #000)" d="M29.663 13.005l-12.779-11.336c-0.252-0.223-0.568-0.335-0.884-0.335s-0.632 0.112-0.884 0.335l-12.779 11.336c-0.28 0.249-0.299 0.68-0.043 0.953l1.091 1.163c0.246 0.263 0.656 0.283 0.927 0.045l11.689-10.214 11.689 10.215c0.27 0.237 0.681 0.218 0.927-0.045l1.091-1.163c0.257-0.274 0.237-0.705-0.043-0.954z"></path>
    <path fill="#000" style="fill: var(--color1, #000)" d="M19.333 16.667h4c0.368 0 0.667 0.299 0.667 0.667v4c0 0.368-0.299 0.667-0.667 0.667h-4c-0.368 0-0.667-0.299-0.667-0.667v-4c0-0.368 0.299-0.667 0.667-0.667z"></path>
</symbol>
<symbol id="icon-news" viewBox="0 0 32 32">
    <path fill="#000" style="fill: var(--color1, #000)" d="M28.667 7.333h-2v20h2c0.737 0 1.333-0.597 1.333-1.333v-17.333c0-0.737-0.597-1.333-1.333-1.333z"></path>
    <path fill="#5286ff" style="fill: var(--color3, #5286ff)" d="M27.333 26v-20c0-0.737-0.597-1.333-1.333-1.333h-22.667c-0.737 0-1.333 0.597-1.333 1.333v20c0 0.737 0.597 1.333 1.333 1.333h25.333c-0.737 0-1.333-0.597-1.333-1.333z"></path>
    <path fill="#fff" style="fill: var(--color4, #fff)" d="M24.667 11.333h-20c-0.368 0-0.667-0.299-0.667-0.667v-1.333c0-0.368 0.299-0.667 0.667-0.667h20c0.368 0 0.667 0.299 0.667 0.667v1.333c0 0.368-0.299 0.667-0.667 0.667z"></path>
    <path fill="#fff" style="fill: var(--color4, #fff)" d="M12.667 24h-8c-0.368 0-0.667-0.299-0.667-0.667v-8.667c0-0.368 0.299-0.667 0.667-0.667h8c0.368 0 0.667 0.299 0.667 0.667v8.667c0 0.368-0.299 0.667-0.667 0.667z"></path>
    <path fill="#fff" style="fill: var(--color4, #fff)" d="M25.333 16h-9.333v-1.333c0-0.368 0.299-0.667 0.667-0.667h8c0.368 0 0.667 0.299 0.667 0.667v1.333z"></path>
    <path fill="#e6eeff" style="fill: var(--color5, #e6eeff)" d="M16 16h9.333v2h-9.333v-2z"></path>
    <path fill="#ccdcff" style="fill: var(--color6, #ccdcff)" d="M16 18h9.333v2h-9.333v-2z"></path>
    <path fill="#b3cbff" style="fill: var(--color7, #b3cbff)" d="M16 20h9.333v2h-9.333v-2z"></path>
    <path fill="#9abaff" style="fill: var(--color8, #9abaff)" d="M24.667 24h-8c-0.368 0-0.667-0.299-0.667-0.667v-1.333h9.333v1.333c0 0.368-0.299 0.667-0.667 0.667z"></path>
</symbol>
<symbol id="icon-info3" viewBox="0 0 32 32">
    <path fill="#000" style="fill: var(--color1, #000)" d="M28 5.333h-24c-0.737 0-1.333 0.597-1.333 1.333v17.333c0 0.737 0.597 1.333 1.333 1.333h5.333v5.332c0 0.594 0.718 0.891 1.138 0.471l5.803-5.803h11.725c0.737 0 1.333-0.597 1.333-1.333v-17.333c0-0.737-0.597-1.333-1.333-1.333z"></path>
    <path fill="#000" style="fill: var(--color1, #000)" opacity="0.05" d="M14.667 22.667h2.667c0.368 0 0.667-0.299 0.667-0.667v-8c0-0.368-0.299-0.667-0.667-0.667h-2.667c-0.368 0-0.667 0.299-0.667 0.667v8c0 0.368 0.299 0.667 0.667 0.667z"></path>
    <path fill="#000" style="fill: var(--color1, #000)" opacity="0.07" d="M14.818 22.333h2.365c0.267 0 0.485-0.217 0.485-0.485v-7.697c0-0.267-0.217-0.485-0.485-0.485h-2.365c-0.267 0-0.485 0.217-0.485 0.485v7.698c0 0.267 0.217 0.484 0.485 0.484z"></path>
    <path fill="#000" style="fill: var(--color1, #000)" opacity="0.15" d="M18.659 10.268c0 1.329-1.19 2.406-2.659 2.406s-2.659-1.077-2.659-2.406c0-1.329 1.19-2.406 2.659-2.406s2.659 1.077 2.659 2.406z"></path>
    <path fill="#fff" style="fill: var(--color4, #fff)" d="M16 11.821c1.133 0 1.767-0.712 1.767-1.592s-0.669-1.563-1.767-1.563-1.767 0.683-1.767 1.563c0 0.88 0.633 1.592 1.767 1.592z"></path>
    <path fill="#fff" style="fill: var(--color4, #fff)" d="M14.667 14h2.667v8h-2.667v-8z"></path>
</symbol>
<symbol id="icon-doc" viewBox="0 0 32 32">
    <path fill="#50e6ff" style="fill: var(--color9, #50e6ff)" d="M26 10.667v16.667c0 0.737-0.597 1.333-1.333 1.333h-17.333c-0.737 0-1.333-0.597-1.333-1.333v-22.667c0-0.737 0.597-1.333 1.333-1.333h11.333l2 5.333 5.333 2z"></path>
    <path fill="#000" style="fill: var(--color1, #000)" d="M18.667 3.333v6c0 0.737 0.597 1.333 1.333 1.333h6l-7.333-7.333z"></path>
    <path fill="#057093" style="fill: var(--color10, #057093)" d="M21.667 16h-11.333c-0.184 0-0.333-0.149-0.333-0.333v-0.667c0-0.184 0.149-0.333 0.333-0.333h11.333c0.184 0 0.333 0.149 0.333 0.333v0.667c0 0.184-0.149 0.333-0.333 0.333z"></path>
    <path fill="#057093" style="fill: var(--color10, #057093)" d="M20.333 18.667h-10c-0.184 0-0.333-0.149-0.333-0.333v-0.667c0-0.184 0.149-0.333 0.333-0.333h10c0.184 0 0.333 0.149 0.333 0.333v0.667c0 0.184-0.149 0.333-0.333 0.333z"></path>
    <path fill="#057093" style="fill: var(--color10, #057093)" d="M21.667 21.333h-11.333c-0.184 0-0.333-0.149-0.333-0.333v-0.667c0-0.184 0.149-0.333 0.333-0.333h11.333c0.184 0 0.333 0.149 0.333 0.333v0.667c0 0.184-0.149 0.333-0.333 0.333z"></path>
    <path fill="#057093" style="fill: var(--color10, #057093)" d="M20.333 24h-10c-0.184 0-0.333-0.149-0.333-0.333v-0.667c0-0.184 0.149-0.333 0.333-0.333h10c0.184 0 0.333 0.149 0.333 0.333v0.667c0 0.184-0.149 0.333-0.333 0.333z"></path>
</symbol>
<symbol id="icon-info4" viewBox="0 0 32 32">
    <path fill="#e74c3c" style="fill: var(--color11, #e74c3c)" d="M16 1.28c-8.123 0-14.72 6.598-14.72 14.72s6.598 14.72 14.72 14.72c8.123 0 14.72-6.598 14.72-14.72s-6.598-14.72-14.72-14.72zM16 2.56c7.43 0 13.44 6.010 13.44 13.44s-6.010 13.44-13.44 13.44c-7.43 0-13.44-6.010-13.44-13.44s6.010-13.44 13.44-13.44zM16 7.040c-1.060 0-1.92 0.86-1.92 1.92s0.86 1.92 1.92 1.92c1.060 0 1.92-0.86 1.92-1.92s-0.86-1.92-1.92-1.92zM13.44 13.44v1.28h1.28v8.32h-1.28v1.28h5.12v-1.28h-1.28v-9.6z"></path>
</symbol>
<symbol id="icon-info1" viewBox="0 0 32 32">
    <path d="M27.321 4.693c-6.245-6.252-16.375-6.258-22.627-0.014s-6.258 16.375-0.014 22.628c6.244 6.252 16.375 6.258 22.627 0.014s6.258-16.375 0.014-22.627zM18.234 26.153c0 0.247-0.2 0.447-0.447 0.447h-3.574c-0.247 0-0.447-0.2-0.447-0.447v-13.269c0-0.247 0.2-0.447 0.447-0.447h3.574c0.247 0 0.447 0.2 0.447 0.447v13.269zM16 10.583c-1.429 0-2.591-1.162-2.591-2.591s1.162-2.591 2.591-2.591 2.591 1.162 2.591 2.591c0 1.429-1.163 2.591-2.591 2.591z"></path>
</symbol>
<symbol id="icon-info2" viewBox="0 0 32 32">
    <path d="M14.667 22.667h2.667v-8h-2.667v8zM16 2.667c-7.367 0-13.333 5.967-13.333 13.333s5.967 13.333 13.333 13.333 13.333-5.967 13.333-13.333-5.967-13.333-13.333-13.333zM16 26.667c-5.88 0-10.667-4.787-10.667-10.667s4.787-10.667 10.667-10.667 10.667 4.787 10.667 10.667-4.787 10.667-10.667 10.667zM14.667 12h2.667v-2.667h-2.667v2.667z"></path>
</symbol>
<symbol id="icon-home1" viewBox="0 0 32 32">
    <path d="M32 18.451l-16-12.42-16 12.42v-5.064l16-12.42 16 12.42zM28 18v12h-8v-8h-8v8h-8v-12l12-9z"></path>
</symbol>
<symbol id="icon-home3" viewBox="0 0 32 32">
    <path fill="#fff" d="M32 19l-6-6v-9h-4v5l-6-6-16 16v1h4v10h10v-6h4v6h10v-10h4z"></path>
</symbol>
<symbol id="icon-info" viewBox="0 0 32 32">
    <path d="M16 3c-3.472 0-6.737 1.352-9.192 3.808s-3.808 5.72-3.808 9.192c0 3.472 1.352 6.737 3.808 9.192s5.72 3.808 9.192 3.808c3.472 0 6.737-1.352 9.192-3.808s3.808-5.72 3.808-9.192c0-3.472-1.352-6.737-3.808-9.192s-5.72-3.808-9.192-3.808zM16 0v0c8.837 0 16 7.163 16 16s-7.163 16-16 16c-8.837 0-16-7.163-16-16s7.163-16 16-16zM14 22h4v4h-4zM14 6h4v12h-4z"></path>
</symbol>
</defs>
</svg>
