<svg aria-hidden="true" style="position: absolute; width: 0; height: 0; overflow: hidden;" version="1.1" xmlns="http://www.w3.org/2000/svg" xmlns:xlink="http://www.w3.org/1999/xlink">
<defs>
    <symbol id="icon-info3" viewBox="0 0 32 32">
        <path fill="#e74c3c" style="fill: var(--color1, #e74c3c)" d="M16 1.28c-8.123 0-14.72 6.598-14.72 14.72s6.598 14.72 14.72 14.72c8.123 0 14.72-6.598 14.72-14.72s-6.598-14.72-14.72-14.72zM16 2.56c7.43 0 13.44 6.010 13.44 13.44s-6.010 13.44-13.44 13.44c-7.43 0-13.44-6.010-13.44-13.44s6.010-13.44 13.44-13.44zM16 7.040c-1.060 0-1.92 0.86-1.92 1.92s0.86 1.92 1.92 1.92c1.060 0 1.92-0.86 1.92-1.92s-0.86-1.92-1.92-1.92zM13.44 13.44v1.28h1.28v8.32h-1.28v1.28h5.12v-1.28h-1.28v-9.6z"></path>
    </symbol>
    <symbol id="icon-info1" viewBox="0 0 32 32">
        <path d="M27.321 4.693c-6.245-6.252-16.375-6.258-22.627-0.014s-6.258 16.375-0.014 22.628c6.244 6.252 16.375 6.258 22.627 0.014s6.258-16.375 0.014-22.627zM18.234 26.153c0 0.247-0.2 0.447-0.447 0.447h-3.574c-0.247 0-0.447-0.2-0.447-0.447v-13.269c0-0.247 0.2-0.447 0.447-0.447h3.574c0.247 0 0.447 0.2 0.447 0.447v13.269zM16 10.583c-1.429 0-2.591-1.162-2.591-2.591s1.162-2.591 2.591-2.591 2.591 1.162 2.591 2.591c0 1.429-1.163 2.591-2.591 2.591z"></path>
    </symbol>
    <symbol id="icon-info2" viewBox="0 0 32 32">
        <path d="M14.667 22.667h2.667v-8h-2.667v8zM16 2.667c-7.367 0-13.333 5.967-13.333 13.333s5.967 13.333 13.333 13.333 13.333-5.967 13.333-13.333-5.967-13.333-13.333-13.333zM16 26.667c-5.88 0-10.667-4.787-10.667-10.667s4.787-10.667 10.667-10.667 10.667 4.787 10.667 10.667-4.787 10.667-10.667 10.667zM14.667 12h2.667v-2.667h-2.667v2.667z"></path>
    </symbol>
    <symbol id="icon-info" viewBox="0 0 32 32">
        <path d="M16 3c-3.472 0-6.737 1.352-9.192 3.808s-3.808 5.72-3.808 9.192c0 3.472 1.352 6.737 3.808 9.192s5.72 3.808 9.192 3.808c3.472 0 6.737-1.352 9.192-3.808s3.808-5.72 3.808-9.192c0-3.472-1.352-6.737-3.808-9.192s-5.72-3.808-9.192-3.808zM16 0v0c8.837 0 16 7.163 16 16s-7.163 16-16 16c-8.837 0-16-7.163-16-16s7.163-16 16-16zM14 22h4v4h-4zM14 6h4v12h-4z"></path>
    </symbol>
    </defs>
</svg>
